<?xml version="1.0" encoding="UTF-8" standalone="no"?>
<!-- Created with Inkscape (http://www.inkscape.org/) -->

<svg
   version="1.1"
   id="svg1"
   width="543.4267"
   height="109.45333"
   viewBox="0 0 543.4267 109.45333"
   sodipodi:docname="LOGO_ROSATOM_rus_HOR_COLOR-01.eps"
   xmlns:inkscape="http://www.inkscape.org/namespaces/inkscape"
   xmlns:sodipodi="http://sodipodi.sourceforge.net/DTD/sodipodi-0.dtd"
   xmlns="http://www.w3.org/2000/svg"
   xmlns:svg="http://www.w3.org/2000/svg">
  <defs
     id="defs1">
    <radialGradient
       fx="0"
       fy="0"
       cx="0"
       cy="0"
       r="1"
       gradientUnits="userSpaceOnUse"
       gradientTransform="matrix(121.347,-5.08e-5,-5.08e-5,-121.347,382.838,458.487)"
       spreadMethod="pad"
       id="radialGradient3">
      <stop
         style="stop-opacity:1;stop-color:#5594d6"
         offset="0"
         id="stop2" />
      <stop
         style="stop-opacity:1;stop-color:#1b2765"
         offset="1"
         id="stop3" />
    </radialGradient>
    <clipPath
       clipPathUnits="userSpaceOnUse"
       id="clipPath3">
      <path
         d="m 468.207,474.465 c -35.355,31.89 -89.902,29.14 -121.809,-6.219 -31.863,-35.355 -29.027,-89.894 6.34,-121.793 35.356,-31.898 89.864,-29.113 121.785,6.235 31.86,35.359 29.036,89.878 -6.316,121.777 z"
         transform="translate(0,-2.5000001e-5)"
         id="path3" />
    </clipPath>
    <linearGradient
       x1="0"
       y1="0"
       x2="1"
       y2="0"
       gradientUnits="userSpaceOnUse"
       gradientTransform="matrix(204.085,314.263,314.263,-204.085,119.394,468.458)"
       spreadMethod="pad"
       id="linearGradient5">
      <stop
         style="stop-opacity:1;stop-color:#5594d6"
         offset="0"
         id="stop4" />
      <stop
         style="stop-opacity:1;stop-color:#1b2765"
         offset="1"
         id="stop5" />
    </linearGradient>
    <clipPath
       clipPathUnits="userSpaceOnUse"
       id="clipPath5">
      <path
         d="m 163.582,738.383 c -56.418,-42.551 -101.5,-99.328 -129.9257,-165 34.1093,-8.41 136.2307,-41.645 183.0817,-168.141 14.09,4.594 44.469,22.297 65.543,90.649 28.266,91.507 81.879,179.527 151.407,209.082 -69.333,68.597 -160.684,84.75 -270.106,33.41 z"
         transform="translate(0,-2.5000001e-5)"
         id="path5" />
    </clipPath>
    <linearGradient
       x1="0"
       y1="0"
       x2="1"
       y2="0"
       gradientUnits="userSpaceOnUse"
       gradientTransform="matrix(506.975,-204.831,-204.831,-506.975,200.855,830.64)"
       spreadMethod="pad"
       id="linearGradient7">
      <stop
         style="stop-opacity:1;stop-color:#5594d6"
         offset="0"
         id="stop6" />
      <stop
         style="stop-opacity:1;stop-color:#1b2765"
         offset="1"
         id="stop7" />
    </linearGradient>
    <clipPath
       clipPathUnits="userSpaceOnUse"
       id="clipPath7">
      <path
         d="m 726.57,672.215 c 0.004,0.008 0.012,0.015 0.02,0.023 -75.277,90.832 -188.945,148.688 -316.125,148.688 -92.68,0 -178.184,-30.727 -246.887,-82.543 151.906,71.269 268.981,12.476 340.676,-136.137 114.195,-20.48 191.754,36.344 222.316,69.969 z"
         transform="translate(0,-2.5000001e-5)"
         id="path7" />
    </clipPath>
    <linearGradient
       x1="0"
       y1="0"
       x2="1"
       y2="0"
       gradientUnits="userSpaceOnUse"
       gradientTransform="matrix(-374.179,19.6051,19.6051,374.179,505.804,129.435)"
       spreadMethod="pad"
       id="linearGradient9">
      <stop
         style="stop-opacity:1;stop-color:#5594d6"
         offset="0"
         id="stop8" />
      <stop
         style="stop-opacity:1;stop-color:#1b2765"
         offset="1"
         id="stop9" />
    </linearGradient>
    <clipPath
       clipPathUnits="userSpaceOnUse"
       id="clipPath9">
      <path
         d="M 249.969,32.7305 C 315.027,5.14453 386.734,-5.51563 457.816,2.70313 448.043,36.4492 425.762,141.512 511.879,245.34 500.855,255.246 470.336,272.703 400.605,256.785 307.23,235.508 204.203,237.934 143.848,283.371 119.113,189.023 150.805,101.832 249.969,32.7305 Z"
         transform="translate(0,-2.5000001e-5)"
         id="path9" />
    </clipPath>
    <linearGradient
       x1="0"
       y1="0"
       x2="1"
       y2="0"
       gradientUnits="userSpaceOnUse"
       gradientTransform="matrix(-76.1112,541.51,541.51,76.1112,151.442,18.881)"
       spreadMethod="pad"
       id="linearGradient11">
      <stop
         style="stop-opacity:1;stop-color:#5594d6"
         offset="0"
         id="stop10" />
      <stop
         style="stop-opacity:1;stop-color:#1b2765"
         offset="1"
         id="stop11" />
    </linearGradient>
    <clipPath
       clipPathUnits="userSpaceOnUse"
       id="clipPath11">
      <path
         d="m 25.7734,553.414 c -0.0078,0.004 -0.0195,0.008 -0.0273,0.008 C -15.2734,442.809 -8.53906,315.434 55.0508,205.281 101.391,125.012 170.746,66.3203 249.969,32.7305 112.301,128.656 104.68,259.453 197.523,395.852 158.156,505 70.1758,543.758 25.7734,553.414 Z"
         transform="translate(0,-2.5000001e-5)"
         id="path11" />
    </clipPath>
    <linearGradient
       x1="0"
       y1="0"
       x2="1"
       y2="0"
       gradientUnits="userSpaceOnUse"
       gradientTransform="matrix(170.113,-333.876,-333.876,-170.113,606.181,633.595)"
       spreadMethod="pad"
       id="linearGradient13">
      <stop
         style="stop-opacity:1;stop-color:#5594d6"
         offset="0"
         id="stop12" />
      <stop
         style="stop-opacity:1;stop-color:#1b2765"
         offset="1"
         id="stop13" />
    </linearGradient>
    <clipPath
       clipPathUnits="userSpaceOnUse"
       id="clipPath13">
      <path
         d="m 817.84,460.379 c -8.641,70.137 -35.266,137.574 -77.922,195.023 -24.336,-25.336 -104.176,-97.164 -237.141,-74.492 -3.07,-14.504 -2.929,-49.664 45.723,-102.094 65.113,-70.234 114.523,-160.675 105.355,-235.671 94.067,25.75 153.731,96.793 163.985,217.234 z"
         transform="translate(0,-2.5000001e-5)"
         id="path13" />
    </clipPath>
    <linearGradient
       x1="0"
       y1="0"
       x2="1"
       y2="0"
       gradientUnits="userSpaceOnUse"
       gradientTransform="matrix(-430.896,-336.644,-336.644,430.896,879.106,381.958)"
       spreadMethod="pad"
       id="linearGradient15">
      <stop
         style="stop-opacity:1;stop-color:#5594d6"
         offset="0"
         id="stop14" />
      <stop
         style="stop-opacity:1;stop-color:#1b2765"
         offset="1"
         id="stop15" />
    </linearGradient>
    <clipPath
       clipPathUnits="userSpaceOnUse"
       id="clipPath15">
      <path
         d="m 479.047,5.85938 c 0.004,-0.00782 0.008,-0.01954 0.012,-0.02735 116.293,19.78127 223.226,89.30077 286.816,199.44897 46.34,80.27 62.488,169.688 51.965,255.098 C 803.605,293.18 694.152,221.18 529.617,233.391 454.781,144.727 465.211,49.1445 479.047,5.85938 Z"
         transform="translate(0,-2.5000001e-5)"
         id="path15" />
    </clipPath>
  </defs>
  <sodipodi:namedview
     id="namedview1"
     pagecolor="#ffffff"
     bordercolor="#000000"
     borderopacity="0.25"
     inkscape:showpageshadow="2"
     inkscape:pageopacity="0.0"
     inkscape:pagecheckerboard="0"
     inkscape:deskcolor="#d1d1d1">
    <inkscape:page
       x="0"
       y="0"
       inkscape:label="1"
       id="page1"
       width="543.4267"
       height="109.45333"
       margin="0"
       bleed="0" />
  </sodipodi:namedview>
  <g
     id="g1"
     inkscape:groupmode="layer"
     inkscape:label="1">
    <g
       id="group-R5">
      <path
         id="path2"
         d="m 468.207,474.465 c -35.355,31.89 -89.902,29.14 -121.809,-6.219 -31.863,-35.355 -29.027,-89.894 6.34,-121.793 35.356,-31.898 89.864,-29.113 121.785,6.235 31.86,35.359 29.036,89.878 -6.316,121.777"
         style="fill:url(#radialGradient3);fill-opacity:1;fill-rule:nonzero;stroke:none"
         transform="matrix(0.13333333,0,0,-0.13333333,0,109.45333)"
         clip-path="url(#clipPath3)" />
      <path
         id="path4"
         d="m 163.582,738.383 c -56.418,-42.551 -101.5,-99.328 -129.9257,-165 34.1093,-8.41 136.2307,-41.645 183.0817,-168.141 14.09,4.594 44.469,22.297 65.543,90.649 28.266,91.507 81.879,179.527 151.407,209.082 -69.333,68.597 -160.684,84.75 -270.106,33.41"
         style="fill:url(#linearGradient5);fill-opacity:1;fill-rule:nonzero;stroke:none"
         transform="matrix(0.13333333,0,0,-0.13333333,0,109.45333)"
         clip-path="url(#clipPath5)" />
      <path
         id="path6"
         d="m 726.57,672.215 c 0.004,0.008 0.012,0.015 0.02,0.023 -75.277,90.832 -188.945,148.688 -316.125,148.688 -92.68,0 -178.184,-30.727 -246.887,-82.543 151.906,71.269 268.981,12.476 340.676,-136.137 114.195,-20.48 191.754,36.344 222.316,69.969"
         style="fill:url(#linearGradient7);fill-opacity:1;fill-rule:nonzero;stroke:none"
         transform="matrix(0.13333333,0,0,-0.13333333,0,109.45333)"
         clip-path="url(#clipPath7)" />
      <path
         id="path8"
         d="M 249.969,32.7305 C 315.027,5.14453 386.734,-5.51563 457.816,2.70313 448.043,36.4492 425.762,141.512 511.879,245.34 500.855,255.246 470.336,272.703 400.605,256.785 307.23,235.508 204.203,237.934 143.848,283.371 119.113,189.023 150.805,101.832 249.969,32.7305"
         style="fill:url(#linearGradient9);fill-opacity:1;fill-rule:nonzero;stroke:none"
         transform="matrix(0.13333333,0,0,-0.13333333,0,109.45333)"
         clip-path="url(#clipPath9)" />
      <path
         id="path10"
         d="m 25.7734,553.414 c -0.0078,0.004 -0.0195,0.008 -0.0273,0.008 C -15.2734,442.809 -8.53906,315.434 55.0508,205.281 101.391,125.012 170.746,66.3203 249.969,32.7305 112.301,128.656 104.68,259.453 197.523,395.852 158.156,505 70.1758,543.758 25.7734,553.414"
         style="fill:url(#linearGradient11);fill-opacity:1;fill-rule:nonzero;stroke:none"
         transform="matrix(0.13333333,0,0,-0.13333333,0,109.45333)"
         clip-path="url(#clipPath11)" />
      <path
         id="path12"
         d="m 817.84,460.379 c -8.641,70.137 -35.266,137.574 -77.922,195.023 -24.336,-25.336 -104.176,-97.164 -237.141,-74.492 -3.07,-14.504 -2.929,-49.664 45.723,-102.094 65.113,-70.234 114.523,-160.675 105.355,-235.671 94.067,25.75 153.731,96.793 163.985,217.234"
         style="fill:url(#linearGradient13);fill-opacity:1;fill-rule:nonzero;stroke:none"
         transform="matrix(0.13333333,0,0,-0.13333333,0,109.45333)"
         clip-path="url(#clipPath13)" />
      <path
         id="path14"
         d="m 479.047,5.85938 c 0.004,-0.00782 0.008,-0.01954 0.012,-0.02735 116.293,19.78127 223.226,89.30077 286.816,199.44897 46.34,80.27 62.488,169.688 51.965,255.098 C 803.605,293.18 694.152,221.18 529.617,233.391 454.781,144.727 465.211,49.1445 479.047,5.85938"
         style="fill:url(#linearGradient15);fill-opacity:1;fill-rule:nonzero;stroke:none"
         transform="matrix(0.13333333,0,0,-0.13333333,0,109.45333)"
         clip-path="url(#clipPath15)" />
      <path
         id="path16"
         d="m 1083.97,411.086 h 50.7 c 28.02,0 49.87,5.457 65.54,16.387 15.65,10.906 23.49,27.914 23.49,51.004 0,24.312 -7.64,41.515 -22.88,51.617 -15.25,10.094 -37.09,15.148 -65.54,15.148 h -51.31 z m 1.86,-217.008 h -92.74 v 432.777 h 148.99 c 27.21,0 51.73,-2.89 73.58,-8.656 21.85,-5.773 40.49,-14.527 55.95,-26.277 15.45,-11.742 27.3,-26.793 35.55,-45.137 8.24,-18.34 12.37,-39.875 12.37,-64.601 0,-24.325 -4.23,-45.957 -12.68,-64.922 -8.45,-18.961 -20.71,-34.926 -36.78,-47.91 -16.08,-12.981 -35.66,-22.872 -58.74,-29.676 -23.09,-6.805 -49.05,-10.203 -77.89,-10.203 h -47.61 V 194.078"
         style="fill:#393536;fill-opacity:1;fill-rule:nonzero;stroke:none"
         transform="matrix(0.13333333,0,0,-0.13333333,0,109.45333)" />
      <path
         id="path17"
         d="m 1603.3,268.27 c 15.65,0 30.08,2.882 43.27,8.656 13.19,5.765 24.52,14.527 34.01,26.277 9.47,11.742 16.79,26.473 21.95,44.199 5.14,17.715 7.73,38.739 7.73,63.063 0,49.051 -10.31,85.008 -30.91,107.887 -20.62,22.871 -47.82,34.312 -81.62,34.312 -15.25,0 -29.58,-2.891 -42.97,-8.656 -13.4,-5.774 -25.03,-14.528 -34.92,-26.278 -9.9,-11.742 -17.63,-26.582 -23.19,-44.511 -5.56,-17.926 -8.35,-38.852 -8.35,-62.754 0,-24.324 2.99,-45.348 8.96,-63.063 5.98,-17.726 14.12,-32.457 24.42,-44.199 10.31,-11.75 22.47,-20.512 36.48,-26.277 14.01,-5.774 29.07,-8.656 45.14,-8.656 z m -3.1,-81.614 c -31.32,0 -59.87,4.856 -85.62,14.528 -25.76,9.683 -47.91,24.011 -66.46,42.972 -18.55,18.953 -32.88,42.348 -42.97,70.176 -10.11,27.82 -15.15,59.863 -15.15,96.133 0,36.265 5.25,68.316 15.77,96.137 10.5,27.82 25.03,51.207 43.58,70.171 18.55,18.961 40.5,33.286 65.85,42.969 25.34,9.684 52.86,14.528 82.53,14.528 33.39,0 63.16,-5.153 89.34,-15.457 26.17,-10.305 48.22,-25.036 66.15,-44.196 17.94,-19.172 31.63,-42.664 41.12,-70.484 9.47,-27.82 14.21,-59.039 14.21,-93.668 0,-38.328 -5.24,-71.613 -15.76,-99.848 -10.51,-28.23 -25.15,-51.523 -43.89,-69.859 -18.76,-18.344 -40.81,-31.949 -66.16,-40.809 -25.35,-8.859 -52.86,-13.293 -82.54,-13.293"
         style="fill:#393536;fill-opacity:1;fill-rule:nonzero;stroke:none"
         transform="matrix(0.13333333,0,0,-0.13333333,0,109.45333)" />
      <path
         id="path18"
         d="m 2224.02,211.219 c -5.79,-2.875 -12.06,-5.739 -18.86,-8.598 -6.8,-2.875 -14.84,-5.527 -24.11,-7.98 -9.27,-2.457 -20,-4.403 -32.14,-5.836 -12.16,-1.418 -26.08,-2.149 -41.75,-2.149 -32.98,0 -62.96,4.75 -89.95,14.223 -26.99,9.48 -50.07,23.387 -69.24,41.734 -19.17,18.332 -34,41.114 -44.51,68.309 -10.52,27.207 -15.77,58.523 -15.77,93.976 0,37.098 5.25,69.961 15.77,98.614 10.51,28.644 25.65,52.648 45.44,72.023 19.79,19.375 43.79,34.008 72.02,43.899 28.24,9.894 60.08,14.836 95.53,14.836 23.49,0 44.6,-2.071 63.37,-6.176 18.75,-4.129 33.89,-8.871 45.44,-14.223 l -20.41,-77.898 c -13.2,4.531 -26.59,7.828 -40.19,9.894 -13.6,2.051 -25.34,3.086 -35.24,3.086 -21.43,0 -40.9,-2.683 -58.41,-8.055 -17.52,-5.371 -32.58,-13.738 -45.14,-25.093 -12.59,-11.367 -22.36,-25.825 -29.37,-43.375 -7.01,-17.571 -10.5,-38.317 -10.5,-62.274 0,-45.851 12.86,-80.347 38.64,-103.484 25.74,-23.129 60.48,-34.695 104.17,-34.695 9.9,0 21.83,1.332 35.85,4.019 14.02,2.676 27.62,6.895 40.82,12.672 l 18.54,-77.449"
         style="fill:#393536;fill-opacity:1;fill-rule:nonzero;stroke:none"
         transform="matrix(0.13333333,0,0,-0.13333333,0,109.45333)" />
      <path
         id="path19"
         d="m 2435.45,370.277 h 115.61 l -57.5,181.77 z m 140.95,-81.609 h -166.31 l -30.91,-94.59 h -91.49 l 147.76,432.777 h 120.56 l 145.91,-432.777 h -94.6 l -30.92,94.59"
         style="fill:#393536;fill-opacity:1;fill-rule:nonzero;stroke:none"
         transform="matrix(0.13333333,0,0,-0.13333333,0,109.45333)" />
      <path
         id="path20"
         d="m 2912.75,194.078 h -92.74 v 347.461 h -123.04 v 85.316 h 338.19 V 541.539 H 2912.75 V 194.078"
         style="fill:#393536;fill-opacity:1;fill-rule:nonzero;stroke:none"
         transform="matrix(0.13333333,0,0,-0.13333333,0,109.45333)" />
      <path
         id="path21"
         d="m 3291.74,268.27 c 15.65,0 30.07,2.882 43.27,8.656 13.2,5.765 24.52,14.527 34,26.277 9.48,11.742 16.79,26.473 21.96,44.199 5.15,17.715 7.72,38.739 7.72,63.063 0,49.051 -10.3,85.008 -30.91,107.887 -20.61,22.871 -47.82,34.312 -81.61,34.312 -15.25,0 -29.58,-2.891 -42.97,-8.656 -13.39,-5.774 -25.05,-14.528 -34.93,-26.278 -9.9,-11.742 -17.63,-26.582 -23.18,-44.511 -5.58,-17.926 -8.35,-38.852 -8.35,-62.754 0,-24.324 2.98,-45.348 8.96,-63.063 5.98,-17.726 14.12,-32.457 24.43,-44.199 10.29,-11.75 22.45,-20.512 36.47,-26.277 14,-5.774 29.05,-8.656 45.14,-8.656 z m -3.1,-81.614 c -31.32,0 -59.87,4.856 -85.63,14.528 -25.76,9.683 -47.91,24.011 -66.45,42.972 -18.56,18.953 -32.88,42.348 -42.97,70.176 -10.11,27.82 -15.16,59.863 -15.16,96.133 0,36.265 5.26,68.316 15.77,96.137 10.52,27.82 25.05,51.207 43.59,70.171 18.54,18.961 40.5,33.286 65.84,42.969 25.36,9.684 52.87,14.528 82.54,14.528 33.38,0 63.16,-5.153 89.34,-15.457 26.16,-10.305 48.23,-25.036 66.15,-44.196 17.93,-19.172 31.62,-42.664 41.12,-70.484 9.48,-27.82 14.21,-59.039 14.21,-93.668 0,-38.328 -5.26,-71.613 -15.75,-99.848 -10.52,-28.23 -25.15,-51.523 -43.9,-69.859 -18.77,-18.344 -40.82,-31.949 -66.16,-40.809 -25.36,-8.859 -52.85,-13.293 -82.54,-13.293"
         style="fill:#393536;fill-opacity:1;fill-rule:nonzero;stroke:none"
         transform="matrix(0.13333333,0,0,-0.13333333,0,109.45333)" />
      <path
         id="path22"
         d="m 4075.69,194.078 h -93.36 l -23.5,287.492 -89.02,-287.492 h -88.41 l -87.8,286.246 -23.48,-286.246 h -93.36 l 43.27,432.777 h 110.67 l 97.68,-326.437 96.46,326.437 h 106.95 l 43.9,-432.777"
         style="fill:#393536;fill-opacity:1;fill-rule:nonzero;stroke:none"
         transform="matrix(0.13333333,0,0,-0.13333333,0,109.45333)" />
    </g>
  </g>
</svg>
