<?xml version="1.0" encoding="utf-8"?>
<svg xmlns="http://www.w3.org/2000/svg" viewBox="156.6019 155.6868 539.2357 536.0839" width="539.2357px" height="536.0839px"><defs><clipPath clipPathUnits="userSpaceOnUse" id="clipPath2"><path d="M 0,635.593 H 639.33 V 0 H 0 Z" transform="translate(-349.43771,-377.07061)" id="path2"/></clipPath><clipPath clipPathUnits="userSpaceOnUse" id="clipPath4"><path d="M 0,635.593 H 639.33 V 0 H 0 Z" transform="translate(-319.94321,-518.82791)" id="path4"/></clipPath><clipPath clipPathUnits="userSpaceOnUse" id="clipPath6"><path d="M 0,635.593 H 639.33 V 0 H 0 Z" transform="translate(-234.45001,-490.25021)" id="path6"/></clipPath><clipPath clipPathUnits="userSpaceOnUse" id="clipPath8"><path d="M 0,635.593 H 639.33 V 0 H 0 Z" transform="translate(-442.87841,-306.21771)" id="path8"/></clipPath><clipPath clipPathUnits="userSpaceOnUse" id="clipPath10"><path d="M 0,635.593 H 639.33 V 0 H 0 Z" transform="translate(-460.83411,-394.42041)" id="path10"/></clipPath><clipPath clipPathUnits="userSpaceOnUse" id="clipPath12"><path d="M 0,635.593 H 639.33 V 0 H 0 Z" transform="translate(-196.97271,-306.23781)" id="path12"/></clipPath><clipPath clipPathUnits="userSpaceOnUse" id="clipPath14"><path d="M 0,635.593 H 639.33 V 0 H 0 Z" transform="translate(-264.5104,-246.61271)" id="path14"/></clipPath><clipPath clipPathUnits="userSpaceOnUse" id="clipPath16"><path d="M 0,635.593 H 639.33 V 0 H 0 Z" transform="translate(-129.3754,-146.2099)" id="path16"/></clipPath><clipPath clipPathUnits="userSpaceOnUse" id="clipPath18"><path d="M 0,635.593 H 639.33 V 0 H 0 Z" transform="translate(-197.5092,-127.47301)" id="path18"/></clipPath><clipPath clipPathUnits="userSpaceOnUse" id="clipPath20"><path d="M 0,635.593 H 639.33 V 0 H 0 Z" transform="translate(-278.94531,-119.9882)" id="path20"/></clipPath><clipPath clipPathUnits="userSpaceOnUse" id="clipPath22"><path d="M 0,635.593 H 639.33 V 0 H 0 Z" transform="translate(-306.68491,-140.85601)" id="path22"/></clipPath><clipPath clipPathUnits="userSpaceOnUse" id="clipPath24"><path d="M 0,635.593 H 639.33 V 0 H 0 Z" transform="translate(-369.30541,-117.7394)" id="path24"/></clipPath><clipPath clipPathUnits="userSpaceOnUse" id="clipPath26"><path d="M 0,635.593 H 639.33 V 0 H 0 Z" transform="translate(-419.02671,-127.47301)" id="path26"/></clipPath><clipPath clipPathUnits="userSpaceOnUse" id="clipPath28"><path d="M 0,635.593 H 639.33 V 0 H 0 Z" transform="translate(-521.87821,-117.7394)" id="path28"/></clipPath></defs><g id="layer-MC0"><path id="path1" d="m 0,0 c -0.023,-16.452 -13.361,-29.764 -29.793,-29.748 -16.437,0.014 -29.758,13.358 -29.752,29.797 0.018,16.45 13.372,29.763 29.804,29.749 C -13.308,29.781 0.006,16.439 0,0" style="fill:#000000;fill-opacity:1;fill-rule:nonzero;stroke:none" transform="matrix(1.3333333,0,0,-1.3333333,465.91693,344.69653)" clip-path="url(#clipPath2)"/><path id="path3" d="m 0,0 c -21.484,0 -41.852,-4.766 -60.103,-13.294 24.279,2.504 49.495,-7.954 68.116,-26.748 0.007,0.003 0.012,0.006 0.019,0.008 9.309,-9.194 17.472,-21.117 24.407,-35.466 39.497,-7.071 66.321,12.547 76.893,24.156 0.002,0.003 0.004,0.006 0.006,0.009 C 83.302,-19.976 43.988,0 0,0" style="fill:#000000;fill-opacity:1;fill-rule:nonzero;stroke:none" transform="matrix(1.3333333,0,0,-1.3333333,426.59093,155.6868)" clip-path="url(#clipPath4)"/><path id="path5" d="m 0,0 c -19.464,-14.683 -35.019,-34.256 -44.832,-56.888 11.797,-2.903 47.117,-14.377 63.322,-58.052 4.874,1.586 15.38,7.698 22.67,31.297 8.944,28.909 25.229,56.808 46.355,69.159 C 64.23,8.081 28.881,17.95 0,0" style="fill:#000000;fill-opacity:1;fill-rule:nonzero;stroke:none" transform="matrix(1.3333333,0,0,-1.3333333,312.6,193.7904)" clip-path="url(#clipPath6)"/><path id="path7" d="M 0,0 C 10.742,18.574 16.792,38.566 18.519,58.61 8.552,36.367 -13.128,19.795 -38.743,13.093 c 0,-0.007 -10e-4,-0.014 -0.002,-0.02 -12.631,-3.452 -27.055,-4.548 -42.97,-3.368 -25.883,-30.613 -22.277,-63.613 -17.491,-78.557 0.001,-0.003 0.003,-0.006 0.004,-0.01 C -58.98,-62.032 -21.994,-38.03 0,0" style="fill:#000000;fill-opacity:1;fill-rule:nonzero;stroke:none" transform="matrix(1.3333333,0,0,-1.3333333,590.50453,439.16707)" clip-path="url(#clipPath8)"/><path id="path9" d="m 0,0 c -3.006,24.169 -12.207,47.404 -26.935,67.204 -8.416,-8.748 -36.03,-33.547 -82.019,-25.72 -1.062,-5.006 -1.012,-17.146 15.814,-35.247 20.607,-22.188 36.666,-50.217 36.818,-74.657 C -25.105,-59.571 1.131,-33.945 0,0" style="fill:#000000;fill-opacity:1;fill-rule:nonzero;stroke:none" transform="matrix(1.3333333,0,0,-1.3333333,614.44547,321.56347)" clip-path="url(#clipPath10)"/><path id="path11" d="M 0,0 C 10.742,-18.574 25.06,-33.801 41.585,-45.316 27.272,-25.577 23.736,1.453 30.729,26.949 c -0.005,0.004 -0.01,0.008 -0.016,0.012 3.322,12.646 9.583,25.664 18.564,38.834 -13.615,37.684 -44.046,51.066 -59.402,54.4 -0.004,0.001 -0.007,0.002 -0.011,0.002 C -24.322,82.007 -21.994,38.03 0,0" style="fill:#000000;fill-opacity:1;fill-rule:nonzero;stroke:none" transform="matrix(1.3333333,0,0,-1.3333333,262.63027,439.14027)" clip-path="url(#clipPath12)"/><path id="path13" d="M 0,0 C 22.469,-9.486 47.226,-13.148 71.766,-10.316 68.386,1.335 60.68,37.608 90.464,73.455 86.652,76.876 76.096,82.904 51.98,77.407 22.429,70.685 -9.916,70.815 -31.193,82.904 -39.125,51.491 -30.012,15.994 0,0" style="fill:#000000;fill-opacity:1;fill-rule:nonzero;stroke:none" transform="matrix(1.3333333,0,0,-1.3333333,352.68053,518.6404)" clip-path="url(#clipPath14)"/><path id="path15" d="m 0,0 h 6.652 c 3.676,0 6.542,0.716 8.598,2.15 2.054,1.431 3.082,3.662 3.082,6.691 0,3.191 -1.002,5.447 -3.002,6.772 -2.001,1.325 -4.867,1.988 -8.598,1.988 H 0 Z M 0.244,-28.47 H -11.924 V 28.308 H 7.624 c 3.57,0 6.786,-0.379 9.653,-1.135 2.866,-0.758 5.313,-1.906 7.34,-3.448 2.028,-1.54 3.582,-3.515 4.664,-5.921 1.082,-2.407 1.623,-5.232 1.623,-8.476 0,-3.192 -0.555,-6.029 -1.663,-8.518 -1.108,-2.487 -2.716,-4.582 -4.826,-6.286 -2.11,-1.702 -4.677,-3 -7.706,-3.893 -3.028,-0.892 -6.435,-1.338 -10.219,-1.338 H 0.244 Z" style="fill:#000000;fill-opacity:1;fill-rule:nonzero;stroke:none" transform="matrix(1.3333333,0,0,-1.3333333,172.50053,652.5108)" clip-path="url(#clipPath16)"/><path id="path17" d="m 0,0 c 2.054,0 3.947,0.378 5.678,1.136 1.73,0.756 3.216,1.906 4.461,3.447 1.243,1.541 2.203,3.473 2.88,5.799 0.675,2.324 1.014,5.082 1.014,8.273 0,6.435 -1.353,11.154 -4.056,14.155 -2.705,3.001 -6.273,4.502 -10.707,4.502 -2.002,0 -3.881,-0.38 -5.638,-1.136 -1.757,-0.757 -3.284,-1.906 -4.582,-3.448 -1.298,-1.54 -2.312,-3.488 -3.042,-5.839 -0.73,-2.353 -1.095,-5.098 -1.095,-8.234 0,-3.191 0.391,-5.949 1.176,-8.273 0.784,-2.326 1.852,-4.258 3.203,-5.799 C -9.355,3.042 -7.76,1.892 -5.922,1.136 -4.083,0.378 -2.108,0 0,0 m -0.406,-10.708 c -4.11,0 -7.855,0.637 -11.234,1.906 -3.38,1.271 -6.286,3.15 -8.72,5.638 -2.433,2.487 -4.313,5.556 -5.637,9.207 -1.326,3.65 -1.986,7.854 -1.986,12.612 0,4.758 0.688,8.963 2.068,12.613 1.378,3.65 3.284,6.718 5.718,9.207 2.433,2.487 5.313,4.367 8.639,5.637 3.324,1.27 6.934,1.906 10.828,1.906 4.38,0 8.286,-0.676 11.721,-2.028 3.433,-1.352 6.326,-3.284 8.678,-5.798 2.353,-2.516 4.15,-5.598 5.395,-9.247 1.243,-3.651 1.865,-7.746 1.865,-12.29 0,-5.028 -0.688,-9.395 -2.068,-13.099 -1.379,-3.704 -3.3,-6.76 -5.759,-9.166 -2.461,-2.406 -5.353,-4.192 -8.679,-5.354 -3.326,-1.162 -6.935,-1.744 -10.829,-1.744" style="fill:#000000;fill-opacity:1;fill-rule:nonzero;stroke:none" transform="matrix(1.3333333,0,0,-1.3333333,263.3456,677.49333)" clip-path="url(#clipPath18)"/><path id="path19" d="m 0,0 c -0.759,-0.378 -1.581,-0.753 -2.474,-1.128 -0.892,-0.377 -1.947,-0.725 -3.163,-1.047 -1.217,-0.322 -2.624,-0.578 -4.217,-0.766 -1.596,-0.186 -3.421,-0.282 -5.477,-0.282 -4.327,0 -8.26,0.623 -11.801,1.866 -3.541,1.244 -6.569,3.068 -9.084,5.476 -2.515,2.405 -4.461,5.394 -5.84,8.962 -1.379,3.569 -2.069,7.678 -2.069,12.329 0,4.867 0.69,9.179 2.069,12.937 1.379,3.758 3.366,6.908 5.961,9.45 2.596,2.542 5.746,4.462 9.45,5.759 3.704,1.298 7.882,1.947 12.533,1.947 3.081,0 5.851,-0.272 8.314,-0.811 2.46,-0.541 4.446,-1.163 5.961,-1.865 l -2.678,-10.22 c -1.731,0.594 -3.488,1.026 -5.272,1.297 -1.784,0.27 -3.325,0.405 -4.623,0.405 -2.812,0 -5.367,-0.351 -7.664,-1.056 -2.299,-0.705 -4.274,-1.803 -5.922,-3.293 -1.651,-1.491 -2.934,-3.388 -3.854,-5.69 -0.92,-2.305 -1.377,-5.027 -1.377,-8.17 0,-6.016 1.687,-10.542 5.07,-13.577 3.377,-3.034 7.934,-4.552 13.666,-4.552 1.299,0 2.865,0.174 4.704,0.527 1.84,0.351 3.623,0.905 5.355,1.663 z" style="fill:#000000;fill-opacity:1;fill-rule:nonzero;stroke:none" transform="matrix(1.3333333,0,0,-1.3333333,371.92707,687.47307)" clip-path="url(#clipPath20)"/><path id="path21" d="M 0,0 H 15.168 L 7.624,23.847 Z M 18.492,-10.707 H -3.327 l -4.056,-12.41 H -19.387 L 0,33.662 H 15.816 L 34.959,-23.117 H 22.548 Z" style="fill:#000000;fill-opacity:1;fill-rule:nonzero;stroke:none" transform="matrix(1.3333333,0,0,-1.3333333,408.9132,659.64933)" clip-path="url(#clipPath22)"/><path id="path23" d="M 0,0 H -12.167 V 45.585 H -28.31 V 56.779 H 16.06 V 45.585 H 0 Z" style="fill:#000000;fill-opacity:1;fill-rule:nonzero;stroke:none" transform="matrix(1.3333333,0,0,-1.3333333,492.4072,690.47147)" clip-path="url(#clipPath24)"/><path id="path25" d="m 0,0 c 2.053,0 3.946,0.378 5.677,1.136 1.731,0.756 3.216,1.906 4.46,3.447 1.244,1.541 2.203,3.473 2.881,5.799 0.676,2.324 1.014,5.082 1.014,8.273 0,6.435 -1.352,11.154 -4.056,14.155 -2.704,3.001 -6.274,4.502 -10.707,4.502 -2,0 -3.881,-0.38 -5.638,-1.136 -1.756,-0.757 -3.285,-1.906 -4.582,-3.448 -1.299,-1.54 -2.313,-3.488 -3.042,-5.839 -0.731,-2.353 -1.094,-5.098 -1.094,-8.234 0,-3.191 0.391,-5.949 1.175,-8.273 0.784,-2.326 1.853,-4.258 3.205,-5.799 1.35,-1.541 2.945,-2.691 4.785,-3.447 C -4.086,0.378 -2.11,0 0,0 m -0.407,-10.708 c -4.108,0 -7.854,0.637 -11.234,1.906 -3.379,1.271 -6.285,3.15 -8.718,5.638 -2.435,2.487 -4.313,5.556 -5.637,9.207 -1.327,3.65 -1.989,7.854 -1.989,12.612 0,4.758 0.69,8.963 2.069,12.613 1.38,3.65 3.286,6.718 5.718,9.207 2.432,2.487 5.314,4.367 8.638,5.637 3.327,1.27 6.936,1.906 10.829,1.906 4.38,0 8.286,-0.676 11.721,-2.028 3.433,-1.352 6.328,-3.284 8.679,-5.798 2.352,-2.516 4.148,-5.598 5.395,-9.247 1.243,-3.651 1.864,-7.746 1.864,-12.29 0,-5.028 -0.69,-9.395 -2.067,-13.099 -1.379,-3.704 -3.299,-6.76 -5.76,-9.166 -2.462,-2.406 -5.354,-4.192 -8.679,-5.354 -3.327,-1.162 -6.934,-1.744 -10.829,-1.744" style="fill:#000000;fill-opacity:1;fill-rule:nonzero;stroke:none" transform="matrix(1.3333333,0,0,-1.3333333,558.70227,677.49333)" clip-path="url(#clipPath26)"/><path id="path27" d="M 0,0 H -12.248 L -15.331,37.718 -27.011,0 H -38.61 L -50.129,37.554 -53.21,0 h -12.247 l 5.676,56.779 h 14.519 l 12.816,-42.828 12.654,42.828 H -5.76 Z" style="fill:#000000;fill-opacity:1;fill-rule:nonzero;stroke:none" transform="matrix(1.3333333,0,0,-1.3333333,695.8376,690.47147)" clip-path="url(#clipPath28)"/></g></svg>